<?xml version="1.0" encoding="UTF-8" standalone="no"?><svg xmlns="http://www.w3.org/2000/svg" xmlns:xlink="http://www.w3.org/1999/xlink" contentStyleType="text/css" height="645px" preserveAspectRatio="none" style="width:866px;height:645px;background:#FFFFFF;" version="1.1" viewBox="0 0 866 645" width="866px" zoomAndPan="magnify"><defs/><g><rect fill="#FFD700" height="60.1875" style="stroke:#181818;stroke-width:0.5;" width="93" x="388.5" y="11"/><line style="stroke:#181818;stroke-width:0.5;" x1="393.5" x2="393.5" y1="11" y2="71.1875"/><line style="stroke:#181818;stroke-width:0.5;" x1="476.5" x2="476.5" y1="11" y2="71.1875"/><text fill="#000000" font-family="sans-serif" font-size="12" lengthAdjust="spacing" textLength="3" x="398.5" y="33.457"> </text><text fill="#0000FF" font-family="sans-serif" font-size="12" lengthAdjust="spacing" textLength="18" x="401.5" y="33.457">run</text><text fill="#000000" font-family="sans-serif" font-size="12" lengthAdjust="spacing" textLength="28" x="425.5" y="33.457">main</text><line style="stroke:#181818;stroke-width:1.0;" x1="388.5" x2="481.5" y1="41.0938" y2="41.0938"/><text fill="#000000" font-family="sans-serif" font-size="12" lengthAdjust="spacing" textLength="70" x="398.5" y="58.5508">call Proc_R0</text><rect fill="#FFD700" height="35.0938" style="stroke:#181818;stroke-width:0.5;" width="98" x="386" y="91.1875"/><line style="stroke:#181818;stroke-width:0.5;" x1="391" x2="391" y1="91.1875" y2="126.2813"/><line style="stroke:#181818;stroke-width:0.5;" x1="479" x2="479" y1="91.1875" y2="126.2813"/><text fill="#000000" font-family="sans-serif" font-size="12" lengthAdjust="spacing" textLength="3" x="396" y="113.6445"> </text><text fill="#0000FF" font-family="sans-serif" font-size="12" lengthAdjust="spacing" textLength="18" x="399" y="113.6445">run</text><text fill="#000000" font-family="sans-serif" font-size="12" lengthAdjust="spacing" textLength="48" x="423" y="113.6445">Proc_R0</text><rect fill="#FFD700" height="35.0938" style="stroke:#181818;stroke-width:0.5;" width="98" x="386" y="146.2813"/><line style="stroke:#181818;stroke-width:0.5;" x1="391" x2="391" y1="146.2813" y2="181.375"/><line style="stroke:#181818;stroke-width:0.5;" x1="479" x2="479" y1="146.2813" y2="181.375"/><text fill="#000000" font-family="sans-serif" font-size="12" lengthAdjust="spacing" textLength="3" x="396" y="168.7383"> </text><text fill="#0000FF" font-family="sans-serif" font-size="12" lengthAdjust="spacing" textLength="18" x="399" y="168.7383">run</text><text fill="#000000" font-family="sans-serif" font-size="12" lengthAdjust="spacing" textLength="48" x="423" y="168.7383">Proc_R1</text><rect fill="#FFD700" height="35.0938" style="stroke:#181818;stroke-width:0.5;" width="98" x="386" y="201.375"/><line style="stroke:#181818;stroke-width:0.5;" x1="391" x2="391" y1="201.375" y2="236.4688"/><line style="stroke:#181818;stroke-width:0.5;" x1="479" x2="479" y1="201.375" y2="236.4688"/><text fill="#000000" font-family="sans-serif" font-size="12" lengthAdjust="spacing" textLength="3" x="396" y="223.832"> </text><text fill="#0000FF" font-family="sans-serif" font-size="12" lengthAdjust="spacing" textLength="18" x="399" y="223.832">run</text><text fill="#000000" font-family="sans-serif" font-size="12" lengthAdjust="spacing" textLength="48" x="423" y="223.832">Proc_R2</text><line style="stroke:#181818;stroke-width:1.5;" x1="241" x2="674" y1="256.4688" y2="256.4688"/><rect fill="#FFD700" height="35.0938" style="stroke:#181818;stroke-width:0.5;" width="98" x="192" y="276.4688"/><line style="stroke:#181818;stroke-width:0.5;" x1="197" x2="197" y1="276.4688" y2="311.5625"/><line style="stroke:#181818;stroke-width:0.5;" x1="285" x2="285" y1="276.4688" y2="311.5625"/><text fill="#000000" font-family="sans-serif" font-size="12" lengthAdjust="spacing" textLength="3" x="202" y="298.9258"> </text><text fill="#0000FF" font-family="sans-serif" font-size="12" lengthAdjust="spacing" textLength="18" x="205" y="298.9258">run</text><text fill="#000000" font-family="sans-serif" font-size="12" lengthAdjust="spacing" textLength="48" x="229" y="298.9258">Proc_R3</text><polygon fill="#F1F1F1" points="228,346.5625,254,346.5625,266,358.5625,254,370.5625,228,370.5625,216,358.5625,228,346.5625" style="stroke:#181818;stroke-width:0.5;"/><text fill="#000000" font-family="sans-serif" font-size="11" lengthAdjust="spacing" textLength="20" x="231" y="363.0635">ALT</text><rect fill="#FFD700" height="60.1875" style="stroke:#181818;stroke-width:0.5;" width="192" x="11" y="408.2344"/><line style="stroke:#181818;stroke-width:0.5;" x1="16" x2="16" y1="408.2344" y2="468.4219"/><line style="stroke:#181818;stroke-width:0.5;" x1="198" x2="198" y1="408.2344" y2="468.4219"/><text fill="#000000" font-family="sans-serif" font-size="12" lengthAdjust="spacing" textLength="3" x="21" y="430.6914"> </text><text fill="#0000FF" font-family="sans-serif" font-size="12" lengthAdjust="spacing" textLength="18" x="24" y="430.6914">run</text><text fill="#000000" font-family="sans-serif" font-size="12" lengthAdjust="spacing" textLength="48" x="48" y="430.6914">Proc_R4</text><line style="stroke:#181818;stroke-width:1.0;" x1="11" x2="203" y1="438.3281" y2="438.3281"/><text fill="#000000" font-family="sans-serif" font-size="12" lengthAdjust="spacing" textLength="23" x="24" y="455.7852">info:</text><text fill="#000000" font-family="sans-serif" font-size="12" font-weight="bold" lengthAdjust="spacing" textLength="137" x="53" y="455.7852">[scope]( R3 ) [goto]( R1 )</text><text fill="#000000" font-family="sans-serif" font-size="12" lengthAdjust="spacing" textLength="3" x="190" y="455.7852"> </text><rect fill="#F1F1F1" height="35.0938" style="stroke:#181818;stroke-width:0.5;" width="107" x="53.5" y="503.4219"/><line style="stroke:#181818;stroke-width:0.5;" x1="58.5" x2="58.5" y1="503.4219" y2="538.5156"/><line style="stroke:#181818;stroke-width:0.5;" x1="155.5" x2="155.5" y1="503.4219" y2="538.5156"/><text fill="#000000" font-family="sans-serif" font-size="12" lengthAdjust="spacing" textLength="3" x="63.5" y="525.8789"> </text><text fill="#0000FF" font-family="sans-serif" font-size="12" lengthAdjust="spacing" textLength="19" x="66.5" y="525.8789">call</text><text fill="#000000" font-family="sans-serif" font-size="12" lengthAdjust="spacing" textLength="62" x="85.5" y="525.8789">( Proc_R1 )</text><rect fill="#FFD700" height="60.1875" style="stroke:#181818;stroke-width:0.5;" width="148" x="273" y="408.2344"/><line style="stroke:#181818;stroke-width:0.5;" x1="278" x2="278" y1="408.2344" y2="468.4219"/><line style="stroke:#181818;stroke-width:0.5;" x1="416" x2="416" y1="408.2344" y2="468.4219"/><text fill="#000000" font-family="sans-serif" font-size="12" lengthAdjust="spacing" textLength="3" x="283" y="430.6914"> </text><text fill="#0000FF" font-family="sans-serif" font-size="12" lengthAdjust="spacing" textLength="18" x="286" y="430.6914">run</text><text fill="#000000" font-family="sans-serif" font-size="12" lengthAdjust="spacing" textLength="48" x="310" y="430.6914">Proc_R5</text><line style="stroke:#181818;stroke-width:1.0;" x1="273" x2="421" y1="438.3281" y2="438.3281"/><text fill="#000000" font-family="sans-serif" font-size="12" lengthAdjust="spacing" textLength="23" x="286" y="455.7852">info:</text><text fill="#000000" font-family="sans-serif" font-size="12" font-weight="bold" lengthAdjust="spacing" textLength="93" x="315" y="455.7852">[scope]( R3, R3 )</text><text fill="#000000" font-family="sans-serif" font-size="12" lengthAdjust="spacing" textLength="3" x="408" y="455.7852"> </text><rect fill="#FFD700" height="60.1875" style="stroke:#181818;stroke-width:0.5;" width="248" x="223" y="503.4219"/><line style="stroke:#181818;stroke-width:0.5;" x1="228" x2="228" y1="503.4219" y2="563.6094"/><line style="stroke:#181818;stroke-width:0.5;" x1="466" x2="466" y1="503.4219" y2="563.6094"/><text fill="#000000" font-family="sans-serif" font-size="12" lengthAdjust="spacing" textLength="3" x="233" y="525.8789"> </text><text fill="#0000FF" font-family="sans-serif" font-size="12" lengthAdjust="spacing" textLength="18" x="236" y="525.8789">run</text><text fill="#000000" font-family="sans-serif" font-size="12" lengthAdjust="spacing" textLength="48" x="260" y="525.8789">Proc_R6</text><line style="stroke:#181818;stroke-width:1.0;" x1="223" x2="471" y1="533.5156" y2="533.5156"/><text fill="#000000" font-family="sans-serif" font-size="12" lengthAdjust="spacing" textLength="23" x="236" y="550.9727">info:</text><text fill="#000000" font-family="sans-serif" font-size="12" font-weight="bold" lengthAdjust="spacing" textLength="193" x="265" y="550.9727">[ref]( R5 ) [scope]( R3 ) [goto]( R1 )</text><text fill="#000000" font-family="sans-serif" font-size="12" lengthAdjust="spacing" textLength="3" x="458" y="550.9727"> </text><rect fill="#F1F1F1" height="35.0938" style="stroke:#181818;stroke-width:0.5;" width="107" x="293.5" y="598.6094"/><line style="stroke:#181818;stroke-width:0.5;" x1="298.5" x2="298.5" y1="598.6094" y2="633.7031"/><line style="stroke:#181818;stroke-width:0.5;" x1="395.5" x2="395.5" y1="598.6094" y2="633.7031"/><text fill="#000000" font-family="sans-serif" font-size="12" lengthAdjust="spacing" textLength="3" x="303.5" y="621.0664"> </text><text fill="#0000FF" font-family="sans-serif" font-size="12" lengthAdjust="spacing" textLength="19" x="306.5" y="621.0664">call</text><text fill="#000000" font-family="sans-serif" font-size="12" lengthAdjust="spacing" textLength="62" x="325.5" y="621.0664">( Proc_R1 )</text><rect fill="#FFD700" height="35.0938" style="stroke:#181818;stroke-width:0.5;" width="98" x="625" y="324.0625"/><line style="stroke:#181818;stroke-width:0.5;" x1="630" x2="630" y1="324.0625" y2="359.1563"/><line style="stroke:#181818;stroke-width:0.5;" x1="718" x2="718" y1="324.0625" y2="359.1563"/><text fill="#000000" font-family="sans-serif" font-size="12" lengthAdjust="spacing" textLength="3" x="635" y="346.5195"> </text><text fill="#0000FF" font-family="sans-serif" font-size="12" lengthAdjust="spacing" textLength="18" x="638" y="346.5195">run</text><text fill="#000000" font-family="sans-serif" font-size="12" lengthAdjust="spacing" textLength="48" x="662" y="346.5195">Proc_R7</text><polygon fill="#F1F1F1" points="661,394.1563,687,394.1563,699,406.1563,687,418.1563,661,418.1563,649,406.1563,661,394.1563" style="stroke:#181818;stroke-width:0.5;"/><text fill="#000000" font-family="sans-serif" font-size="11" lengthAdjust="spacing" textLength="20" x="664" y="410.6572">ALT</text><rect fill="#FFD700" height="60.1875" style="stroke:#181818;stroke-width:0.5;" width="127" x="494" y="455.8281"/><line style="stroke:#181818;stroke-width:0.5;" x1="499" x2="499" y1="455.8281" y2="516.0156"/><line style="stroke:#181818;stroke-width:0.5;" x1="616" x2="616" y1="455.8281" y2="516.0156"/><text fill="#000000" font-family="sans-serif" font-size="12" lengthAdjust="spacing" textLength="3" x="504" y="478.2852"> </text><text fill="#0000FF" font-family="sans-serif" font-size="12" lengthAdjust="spacing" textLength="18" x="507" y="478.2852">run</text><text fill="#000000" font-family="sans-serif" font-size="12" lengthAdjust="spacing" textLength="48" x="531" y="478.2852">Proc_R8</text><line style="stroke:#181818;stroke-width:1.0;" x1="494" x2="621" y1="485.9219" y2="485.9219"/><text fill="#000000" font-family="sans-serif" font-size="12" lengthAdjust="spacing" textLength="23" x="507" y="503.3789">info:</text><text fill="#000000" font-family="sans-serif" font-size="12" font-weight="bold" lengthAdjust="spacing" textLength="72" x="536" y="503.3789">[scope]( R7 )</text><text fill="#000000" font-family="sans-serif" font-size="12" lengthAdjust="spacing" textLength="3" x="608" y="503.3789"> </text><rect fill="#F1F1F1" height="35.0938" style="stroke:#181818;stroke-width:0.5;" width="45" x="535" y="551.0156"/><line style="stroke:#181818;stroke-width:0.5;" x1="540" x2="540" y1="551.0156" y2="586.1094"/><line style="stroke:#181818;stroke-width:0.5;" x1="575" x2="575" y1="551.0156" y2="586.1094"/><text fill="#000000" font-family="sans-serif" font-size="12" lengthAdjust="spacing" textLength="3" x="545" y="573.4727"> </text><text fill="#0000FF" font-family="sans-serif" font-size="12" lengthAdjust="spacing" textLength="19" x="548" y="573.4727">NIL</text><text fill="#000000" font-family="sans-serif" font-size="12" lengthAdjust="spacing" textLength="3" x="567" y="573.4727"> </text><rect fill="#FFD700" height="60.1875" style="stroke:#181818;stroke-width:0.5;" width="213" x="641" y="455.8281"/><line style="stroke:#181818;stroke-width:0.5;" x1="646" x2="646" y1="455.8281" y2="516.0156"/><line style="stroke:#181818;stroke-width:0.5;" x1="849" x2="849" y1="455.8281" y2="516.0156"/><text fill="#000000" font-family="sans-serif" font-size="12" lengthAdjust="spacing" textLength="3" x="651" y="478.2852"> </text><text fill="#0000FF" font-family="sans-serif" font-size="12" lengthAdjust="spacing" textLength="18" x="654" y="478.2852">run</text><text fill="#000000" font-family="sans-serif" font-size="12" lengthAdjust="spacing" textLength="48" x="678" y="478.2852">Proc_R9</text><line style="stroke:#181818;stroke-width:1.0;" x1="641" x2="854" y1="485.9219" y2="485.9219"/><text fill="#000000" font-family="sans-serif" font-size="12" lengthAdjust="spacing" textLength="23" x="654" y="503.3789">info:</text><text fill="#000000" font-family="sans-serif" font-size="12" font-weight="bold" lengthAdjust="spacing" textLength="158" x="683" y="503.3789">[scope]( R7, R7 ) [goto]( R7 )</text><text fill="#000000" font-family="sans-serif" font-size="12" lengthAdjust="spacing" textLength="3" x="841" y="503.3789"> </text><rect fill="#F1F1F1" height="35.0938" style="stroke:#181818;stroke-width:0.5;" width="107" x="694" y="551.0156"/><line style="stroke:#181818;stroke-width:0.5;" x1="699" x2="699" y1="551.0156" y2="586.1094"/><line style="stroke:#181818;stroke-width:0.5;" x1="796" x2="796" y1="551.0156" y2="586.1094"/><text fill="#000000" font-family="sans-serif" font-size="12" lengthAdjust="spacing" textLength="3" x="704" y="573.4727"> </text><text fill="#0000FF" font-family="sans-serif" font-size="12" lengthAdjust="spacing" textLength="19" x="707" y="573.4727">call</text><text fill="#000000" font-family="sans-serif" font-size="12" lengthAdjust="spacing" textLength="62" x="726" y="573.4727">( Proc_R7 )</text><line style="stroke:#181818;stroke-width:1.0;" x1="435" x2="435" y1="71.1875" y2="91.1875"/><polygon fill="#181818" points="431,81.1875,435,91.1875,439,81.1875,435,85.1875" style="stroke:#181818;stroke-width:1.0;"/><line style="stroke:#181818;stroke-width:1.0;" x1="435" x2="435" y1="126.2813" y2="146.2813"/><polygon fill="#181818" points="431,136.2813,435,146.2813,439,136.2813,435,140.2813" style="stroke:#181818;stroke-width:1.0;"/><line style="stroke:#181818;stroke-width:1.0;" x1="435" x2="435" y1="181.375" y2="201.375"/><polygon fill="#181818" points="431,191.375,435,201.375,439,191.375,435,195.375" style="stroke:#181818;stroke-width:1.0;"/><line style="stroke:#181818;stroke-width:1.0;" x1="107" x2="107" y1="468.4219" y2="503.4219"/><polygon fill="#181818" points="103,493.4219,107,503.4219,111,493.4219,107,497.4219" style="stroke:#181818;stroke-width:1.0;"/><line style="stroke:#181818;stroke-width:1.0;" x1="347" x2="347" y1="468.4219" y2="503.4219"/><polygon fill="#181818" points="343,493.4219,347,503.4219,351,493.4219,347,497.4219" style="stroke:#181818;stroke-width:1.0;"/><line style="stroke:#181818;stroke-width:1.0;" x1="347" x2="347" y1="563.6094" y2="598.6094"/><polygon fill="#181818" points="343,588.6094,347,598.6094,351,588.6094,347,592.6094" style="stroke:#181818;stroke-width:1.0;"/><line style="stroke:#181818;stroke-width:1.0;" x1="216" x2="107" y1="358.5625" y2="358.5625"/><line style="stroke:#181818;stroke-width:1.0;" x1="107" x2="107" y1="358.5625" y2="408.2344"/><polygon fill="#181818" points="103,398.2344,107,408.2344,111,398.2344,107,402.2344" style="stroke:#181818;stroke-width:1.0;"/><text fill="#000000" font-family="sans-serif" font-size="11" lengthAdjust="spacing" textLength="3" x="107" y="387.8994"> </text><line style="stroke:#181818;stroke-width:1.0;" x1="266" x2="347" y1="358.5625" y2="358.5625"/><line style="stroke:#181818;stroke-width:1.0;" x1="347" x2="347" y1="358.5625" y2="408.2344"/><polygon fill="#181818" points="343,398.2344,347,408.2344,351,398.2344,347,402.2344" style="stroke:#181818;stroke-width:1.0;"/><text fill="#000000" font-family="sans-serif" font-size="11" lengthAdjust="spacing" textLength="3" x="347" y="387.8994"> </text><text fill="#000000" font-family="sans-serif" font-size="11" font-weight="bold" lengthAdjust="spacing" textLength="47" x="350" y="387.8994">deadline</text><text fill="#000000" font-family="sans-serif" font-size="11" lengthAdjust="spacing" textLength="3" x="397" y="387.8994"> </text><line style="stroke:#181818;stroke-width:1.0;" x1="241" x2="241" y1="311.5625" y2="346.5625"/><polygon fill="#181818" points="237,336.5625,241,346.5625,245,336.5625,241,340.5625" style="stroke:#181818;stroke-width:1.0;"/><line style="stroke:#181818;stroke-width:1.0;" x1="557.5" x2="557.5" y1="516.0156" y2="551.0156"/><polygon fill="#181818" points="553.5,541.0156,557.5,551.0156,561.5,541.0156,557.5,545.0156" style="stroke:#181818;stroke-width:1.0;"/><line style="stroke:#181818;stroke-width:1.0;" x1="747.5" x2="747.5" y1="516.0156" y2="551.0156"/><polygon fill="#181818" points="743.5,541.0156,747.5,551.0156,751.5,541.0156,747.5,545.0156" style="stroke:#181818;stroke-width:1.0;"/><line style="stroke:#181818;stroke-width:1.0;" x1="649" x2="557.5" y1="406.1563" y2="406.1563"/><line style="stroke:#181818;stroke-width:1.0;" x1="557.5" x2="557.5" y1="406.1563" y2="455.8281"/><polygon fill="#181818" points="553.5,445.8281,557.5,455.8281,561.5,445.8281,557.5,449.8281" style="stroke:#181818;stroke-width:1.0;"/><text fill="#000000" font-family="sans-serif" font-size="11" lengthAdjust="spacing" textLength="3" x="557.5" y="435.4932"> </text><line style="stroke:#181818;stroke-width:1.0;" x1="699" x2="747.5" y1="406.1563" y2="406.1563"/><line style="stroke:#181818;stroke-width:1.0;" x1="747.5" x2="747.5" y1="406.1563" y2="455.8281"/><polygon fill="#181818" points="743.5,445.8281,747.5,455.8281,751.5,445.8281,747.5,449.8281" style="stroke:#181818;stroke-width:1.0;"/><text fill="#000000" font-family="sans-serif" font-size="11" lengthAdjust="spacing" textLength="3" x="747.5" y="435.4932"> </text><text fill="#000000" font-family="sans-serif" font-size="11" font-weight="bold" lengthAdjust="spacing" textLength="47" x="750.5" y="435.4932">deadline</text><text fill="#000000" font-family="sans-serif" font-size="11" lengthAdjust="spacing" textLength="3" x="797.5" y="435.4932"> </text><line style="stroke:#181818;stroke-width:1.0;" x1="674" x2="674" y1="359.1563" y2="394.1563"/><polygon fill="#181818" points="670,384.1563,674,394.1563,678,384.1563,674,388.1563" style="stroke:#181818;stroke-width:1.0;"/><line style="stroke:#181818;stroke-width:1.0;" x1="241" x2="241" y1="257.9688" y2="276.4688"/><polygon fill="#181818" points="237,266.4688,241,276.4688,245,266.4688,241,270.4688" style="stroke:#181818;stroke-width:1.0;"/><line style="stroke:#181818;stroke-width:1.0;" x1="674" x2="674" y1="257.9688" y2="324.0625"/><polygon fill="#181818" points="670,314.0625,674,324.0625,678,314.0625,674,318.0625" style="stroke:#181818;stroke-width:1.0;"/><line style="stroke:#181818;stroke-width:1.0;" x1="435" x2="435" y1="236.4688" y2="256.4688"/><polygon fill="#181818" points="431,246.4688,435,256.4688,439,246.4688,435,250.4688" style="stroke:#181818;stroke-width:1.0;"/><!--MD5=[e0a040e0082a002edfbc3d3af25c58a8]
@startuml

!include process_algebra_macros.iuml

'skinparam linetype polyline
skinparam linetype ortho



$runProcessDesc("main", "call Proc_R0")

$runProcess("Proc_R0")

$runProcess("Proc_R1")

$runProcess("Proc_R2")
'fork
split

	$runProcess("Proc_R3")
	switch( ALT )
	case ( )

		$runProcessInfo("Proc_R4", " info: ** [scope]( R3 ) [goto]( R1 )**")
		$callProcess("Proc_R1")
		detach
	case ( **deadline** )

		$runProcessInfo("Proc_R5", " info: ** [scope]( R3, R3 )**")

		$runProcessInfo("Proc_R6", " info: ** [ref]( R5 ) [scope]( R3 ) [goto]( R1 )**")
		$callProcess("Proc_R1")
		detach
	endswitch
'fork again
split again

	$runProcess("Proc_R7")
	switch( ALT )
	case ( )

		$runProcessInfo("Proc_R8", " info: ** [scope]( R7 )**")
		$nilProcess
		detach
	case ( **deadline** )

		$runProcessInfo("Proc_R9", " info: ** [scope]( R7, R7 ) [goto]( R7 )**")
		$callProcess("Proc_R7")
		detach
	endswitch
'endfork
end split

@enduml

@startuml































































































skinparam linetype ortho



#Gold: <color blue>run</color>  main\n- - - -\ncall Proc_R0 |

#Gold: <color blue>run</color>  Proc_R0 |

#Gold: <color blue>run</color>  Proc_R1 |

#Gold: <color blue>run</color>  Proc_R2 |
split

	#Gold: <color blue>run</color>  Proc_R3 |
	switch( ALT )
	case ( )

		#Gold: <color blue>run</color>  Proc_R4\n- - - -\n info: ** [scope]( R3 ) [goto]( R1 )** |
		: <color blue>call</color>( Proc_R1 ) |
		detach
	case ( **deadline** )

		#Gold: <color blue>run</color>  Proc_R5\n- - - -\n info: ** [scope]( R3, R3 )** |

		#Gold: <color blue>run</color>  Proc_R6\n- - - -\n info: ** [ref]( R5 ) [scope]( R3 ) [goto]( R1 )** |
		: <color blue>call</color>( Proc_R1 ) |
		detach
	endswitch
split again

	#Gold: <color blue>run</color>  Proc_R7 |
	switch( ALT )
	case ( )

		#Gold: <color blue>run</color>  Proc_R8\n- - - -\n info: ** [scope]( R7 )** |
		: <color blue>NIL</color> |
		detach
	case ( **deadline** )

		#Gold: <color blue>run</color>  Proc_R9\n- - - -\n info: ** [scope]( R7, R7 ) [goto]( R7 )** |
		: <color blue>call</color>( Proc_R7 ) |
		detach
	endswitch
end split

@enduml

PlantUML version 1.2022.13(Sat Nov 19 14:22:17 CET 2022)
(GPL source distribution)
Java Runtime: Java(TM) SE Runtime Environment
JVM: Java HotSpot(TM) 64-Bit Server VM
Default Encoding: Cp1252
Language: fr
Country: FR
--></g></svg>